<?xml version="1.0" encoding="UTF-8"?>
<svg id="Layer_2" data-name="Layer 2" xmlns="http://www.w3.org/2000/svg" viewBox="0 0 12 12">
  <defs>
    <style>
      .cls-1 {
        fill: currentColor;
        fill-rule: evenodd;
      }
    </style>
  </defs>
  <g id="Layer_1-2" data-name="Layer 1">
    <path class="cls-1" d="M10.5,6c0,2.49-2.01,4.5-4.5,4.5S1.5,8.49,1.5,6,3.51,1.5,6,1.5s4.5,2.01,4.5,4.5ZM12,6c0,3.31-2.69,6-6,6S0,9.31,0,6,2.69,0,6,0s6,2.69,6,6ZM5.53,3.41h2.27c.76,0,1.16.23,1.2.68,0,.1,0,.2-.03.29l-.18.84c-.06.37-.27.71-.57.93l-1.82,1.28h1.9l-.25,1.17H3.02l.24-1.08,3.06-2.18c.1-.06.18-.14.23-.24.05-.1.08-.21.07-.33,0-.03,0-.07-.01-.1-.02-.03-.05-.06-.08-.08-.03-.02-.07-.02-.11-.02-.16,0-.27.11-.32.33l-.08.31h-2.25l.18-.83c.14-.65.67-.97,1.59-.97Z"/>
  </g>
</svg>