<?xml version="1.0" encoding="UTF-8"?>
<svg id="Layer_2" data-name="Layer 2" xmlns="http://www.w3.org/2000/svg" viewBox="0 0 12 12">
  <defs>
    <style>
      .cls-1 {
        fill: currentColor;
        fill-rule: evenodd;
      }
    </style>
  </defs>
  <g id="Layer_1-2" data-name="Layer 1">
    <path class="cls-1" d="M10.5,6c0,2.49-2.01,4.5-4.5,4.5S1.5,8.49,1.5,6,3.51,1.5,6,1.5s4.5,2.01,4.5,4.5ZM12,6c0,3.31-2.69,6-6,6S0,9.31,0,6,2.69,0,6,0s6,2.69,6,6ZM8.63,3.41h-3.37l-2.2,3.1-.23,1.07h2.64l-.23,1.03h2.25l.23-1.03h.75l.26-1.18h-.75l.65-2.99ZM5.72,6.39h-.69l1.01-1.44-.32,1.44Z"/>
  </g>
</svg>