<?xml version="1.0" encoding="UTF-8"?>
<svg id="Layer_2" data-name="Layer 2" xmlns="http://www.w3.org/2000/svg" viewBox="0 0 12 12">
  <defs>
    <style>
      .cls-1 {
        fill: currentColor;
        fill-rule: evenodd;
      }
    </style>
  </defs>
  <g id="Layer_1-2" data-name="Layer 1">
    <path class="cls-1" d="M10.5,6c0,2.49-2.01,4.5-4.5,4.5S1.5,8.49,1.5,6,3.51,1.5,6,1.5s4.5,2.01,4.5,4.5ZM12,6c0,3.31-2.69,6-6,6S0,9.31,0,6,2.69,0,6,0s6,2.69,6,6ZM5.77,6.44h-2.27l.66-3.04h5.04l-.26,1.17h-2.78l-.14.62c.44-.18.9-.27,1.37-.28.79,0,1.21.26,1.25.79,0,.13,0,.27-.04.4l-.3,1.4c-.15.73-.69,1.1-1.62,1.1h-2.27c-.77,0-1.17-.23-1.2-.68,0-.1,0-.19.03-.29l.18-.79h2.26c-.01.06-.02.11-.03.17,0,.06-.02.12-.03.18,0,.15.05.23.19.23.18,0,.29-.12.35-.38l.11-.49c0-.09,0-.19,0-.29-.02-.03-.05-.05-.09-.06-.03-.01-.07-.02-.1-.02-.12,0-.23.08-.32.25Z"/>
  </g>
</svg>