<?xml version="1.0" encoding="UTF-8"?>
<svg id="Layer_2" data-name="Layer 2" xmlns="http://www.w3.org/2000/svg" viewBox="0 0 12 12">
  <defs>
    <style>
      .cls-1 {
        fill: currentColor;
        fill-rule: evenodd;
      }
    </style>
  </defs>
  <g id="Layer_1-2" data-name="Layer 1">
    <path class="cls-1" d="M10.5,6c0,2.49-2.01,4.5-4.5,4.5S1.5,8.49,1.5,6,3.51,1.5,6,1.5s4.5,2.01,4.5,4.5ZM12,6c0,3.31-2.69,6-6,6S0,9.31,0,6,2.69,0,6,0s6,2.69,6,6ZM7.77,3.41h-2.25c-.91,0-1.44.32-1.58.97l-.71,3.28c-.02.09-.03.19-.03.29.04.45.43.67,1.19.67h2.25c.92,0,1.46-.36,1.61-1.09l.23-1.06c.03-.13.05-.27.04-.4-.04-.51-.45-.77-1.24-.77-.47,0-.93.09-1.37.28l.13-.57c.02-.11.06-.22.12-.32.03-.03.06-.05.1-.07.04-.02.08-.03.12-.03.04,0,.07,0,.11.02.03.02.06.04.08.08.02.03.04.06.04.1,0,.04,0,.08-.02.12v.09s2.2,0,2.2,0l.14-.6c.02-.09.03-.18.03-.28-.04-.46-.43-.69-1.19-.69ZM5.98,6.5s.07,0,.11.02c.03.01.06.04.08.07.02.02.02.05.02.08,0,.06,0,.12-.02.18l-.06.27c0,.1-.05.19-.12.25-.06.06-.14.09-.22.08-.03,0-.07,0-.1-.02-.03-.01-.06-.04-.08-.07-.01-.03-.02-.07-.02-.11,0-.05,0-.1.02-.14l.05-.25c.05-.24.16-.36.34-.36Z"/>
  </g>
</svg>