<?xml version="1.0" encoding="UTF-8"?>
<svg id="Layer_2" data-name="Layer 2" xmlns="http://www.w3.org/2000/svg" viewBox="0 0 48 48">
  <defs>
    <style>
      .cls-1 {
        fill: #fff;
      }
    </style>
  </defs>
  <g id="Dodge">
    <circle cx="24" cy="24" r="24"/>
    <circle class="cls-1" cx="24" cy="24" r="20"/>
    <g>
      <path d="M24,9.06l15.95,15.95c.02-.34.05-.67.05-1.01,0-8.84-7.16-16-16-16S8,15.16,8,24c0,.34.03.67.05,1.01l15.95-15.95Z"/>
      <path d="M24,14.72l-14.95,14.95c.47,1.25,1.09,2.42,1.84,3.5l13.1-13.1,13.1,13.1c.75-1.08,1.37-2.25,1.84-3.5l-14.95-14.95Z"/>
      <path d="M13.59,36.13c.97.84,2.05,1.55,3.2,2.14l7.21-7.21,7.21,7.21c1.16-.59,2.23-1.3,3.2-2.14l-10.41-10.41-10.41,10.41Z"/>
      <path d="M24,36.72l-2.99,2.99c.97.18,1.97.29,2.99.29s2.02-.11,2.99-.29l-2.99-2.99Z"/>
    </g>
  </g>
</svg>