<?xml version="1.0" encoding="UTF-8"?>
<svg id="Layer_2" data-name="Layer 2" xmlns="http://www.w3.org/2000/svg" viewBox="0 0 48 48">
  <defs>
    <linearGradient id="linear-gradient" x1="9.86" y1="38.08" x2="38.14" y2="9.8" gradientUnits="userSpaceOnUse">
      <stop offset="0" stop-color="#e73452"/>
      <stop offset="1" stop-color="#5a61e7"/>
    </linearGradient>
  </defs>
  <g id="Skill">
    <circle cx="24" cy="24" r="24"/>
    <circle style="fill: url(#linear-gradient);" cx="24" cy="23.94" r="20"/>
    <path d="M45.07,21.29l-14.71-3.65-3.65-14.71c-.7-2.83-4.72-2.83-5.42,0l-3.65,14.71-14.71,3.65c-2.83.7-2.83,4.72,0,5.42l14.71,3.65,3.65,14.71c.7,2.83,4.72,2.83,5.42,0l3.65-14.71,14.71-3.65c2.83-.7,2.83-4.72,0-5.42ZM31.22,24.91l-4.26,1.02c-.51.12-.9.52-1.02,1.02l-1.02,4.26c-.23.96-1.59.96-1.82,0l-1.02-4.26c-.12-.51-.52-.9-1.02-1.02l-4.26-1.02c-.96-.23-.96-1.59,0-1.82l4.26-1.02c.51-.12.9-.52,1.02-1.02l1.02-4.26c.23-.96,1.59-.96,1.82,0l1.02,4.26c.12.51.52.9,1.02,1.02l4.26,1.02c.96.23.96,1.59,0,1.82Z"/>
  </g>
</svg>