<?xml version="1.0" encoding="UTF-8"?>
<svg id="Layer_2" data-name="Layer 2" xmlns="http://www.w3.org/2000/svg" viewBox="0 0 48 48">
  <defs>
    <linearGradient id="linear-gradient" x1="24" y1="33" x2="24" y2="15" gradientUnits="userSpaceOnUse">
      <stop offset="0" stop-color="#f76d01"/>
      <stop offset="1" stop-color="#f7c300"/>
    </linearGradient>
    <linearGradient id="linear-gradient-2" x1="29.93" y1="44" x2="29.93" y2="8.16" href="#linear-gradient"/>
    <linearGradient id="linear-gradient-3" x1="18.07" y1="39.84" x2="18.07" y2="4" href="#linear-gradient"/>
  </defs>
  <g id="Ultimate">
    <circle cx="24" cy="24" r="24"/>
    <g>
      <path style="fill: url(#linear-gradient);" d="M24,33c.41-4.79,4.21-8.59,9-9-4.79-.41-8.59-4.21-9-9-.41,4.79-4.21,8.59-9,9,4.79.41,8.59,4.21,9,9Z"/>
      <path style="fill: url(#linear-gradient-2);" d="M36.26,8.2c-3.54-.22-6.72.58-9.62,2.21,6.42,2.37,10.99,8.54,10.99,15.78,0,9.29-7.53,16.82-16.82,16.82-1.73,0-3.39-.26-4.96-.75,2.49,1.11,5.24,1.75,8.15,1.75,11.05,0,20-8.95,20-20,0-6.43-3.03-12.14-7.74-15.8Z"/>
      <path style="fill: url(#linear-gradient-3);" d="M10.37,21.82c0-9.29,7.53-16.82,16.82-16.82,1.73,0,3.39.26,4.96.75-2.49-1.11-5.24-1.75-8.15-1.75C12.95,4,4,12.95,4,24c0,6.43,3.03,12.14,7.74,15.8,3.54.22,6.72-.58,9.62-2.21-6.42-2.37-10.99-8.54-10.99-15.78Z"/>
    </g>
  </g>
</svg>