<?xml version="1.0" encoding="UTF-8"?>
<svg id="Layer_2" data-name="Layer 2" xmlns="http://www.w3.org/2000/svg" viewBox="0 0 36.33 31.27">
  <g id="Layer_9" data-name="Layer 9">
    <path d="M36.15,6.89c.85-6.78-1.48-6.89-1.48-6.89H9.1L0,31.27h24.25s6.5-3.64,7.49-7.96c1.05-4.56-.88-6.56-.88-6.56,0,0,4.44-3.08,5.29-9.86ZM24.58,21.65c-.12.76-1.44,2.31-1.44,2.31h-12.56l.77-4.19h12.79s.56,1.11.44,1.87ZM27.88,9.86c-.65,1.39-3.75,2.65-3.75,2.65l-7.73.1c0,2.66-4.84,5.84-4.84,5.84l3.31-11.32h12.79s.61,1.91.22,2.73Z"/>
  </g>
</svg>