<?xml version="1.0" encoding="UTF-8"?>
<svg xmlns="http://www.w3.org/2000/svg" viewBox="0 0 63.43 35.88">
  <defs>
    <style>
      .cls-1 {
        fill: #fff;
      }
    </style>
  </defs>
    <g>
        <path class="cls-1" d="M63.01,3.71c-.63-1.34-1.67-2.17-3.13-2.5-1.46-.33-4.37-.49-8.74-.49h-6.55l-2.76,10.61c-.84,3.22,1.58,5.41,4.69,6.04.61.12,1.25.24,1.9.36.53.1,1.04-.21,1.18-.73l2.7-10.4c1.07,0,1.76.17,2.08.51.31.34.33,1.06.04,2.15,0,0-1.32,5.16-1.79,6.89-.34,1.25-.71,2.35-1.32,2.69-.49.27-1.62.38-2.29.41-2.77.14-4.59.48-5.89.76-1.82.39-3.99,1.66-4.75,4.6l-2.73,10.53h9.25l3.03-11.68c.58.02,1.36.12,1.39,1.29l.43,10.39h8.59s-.6-11.08-.6-11.24c-.09-2-1.75-2.99-2.74-3.37,2.07-.18,3.57-.74,4.5-1.66.93-.92,1.59-2.15,2.29-4.83.04-.14,1.09-4.2,1.12-4.33.67-2.73.7-4.73.1-6.01Z"/>
        <path class="cls-1" d="M21.62,19.01c-.68-1.52-2.76-3.46-6.27-5.82-1.22-.82-1.91-1.52-2.07-2.1-.17-.58-.11-1.45.19-2.6.23-.89.55-1.56.95-2,.4-.44.88-.66,1.44-.66.51,0,.84.16.97.49.13.33.05,1.08-.26,2.28l-.66,2.55h8.59l.35-1.36c.21-.79.37-1.51.49-2.17h3.12l-2.8,10.79s9.37-.47,10.39-4.39l1.66-6.4h3.64l1.79-6.89h-17.36l-.61,2.33c-.43-.74-1.18-1.39-2.26-1.93-1.5-.75-3.45-1.13-5.85-1.13-2.2,0-4.16.34-5.89,1.03-1.73.69-3.1,1.64-4.12,2.86-1.01,1.22-1.86,3.15-2.55,5.78-.48,1.83-.62,3.33-.43,4.51.19,1.18.56,2.1,1.14,2.76.57.67,1.82,1.74,3.74,3.21,1.92,1.46,3.09,2.5,3.52,3.13.41.62.35,1.95-.18,3.98-.24.92-.57,1.62-.99,2.09-.42.47-.94.7-1.56.7s-1-.18-1.14-.55c-.15-.37-.05-1.2.28-2.49l1.09-4.19H1.38l-.58,2.25C.12,27.65-.12,29.65.06,31.05c.18,1.4,1.02,2.56,2.54,3.47,1.51.91,3.51,1.36,5.98,1.36,2.26,0,4.34-.39,6.24-1.18,1.9-.79,3.3-1.76,4.2-2.92.9-1.16,1.66-2.97,2.3-5.42.88-3.37.98-5.82.3-7.34Z"/>
        <path class="cls-1" d="M30.04,20.13l-4.44-1.51-4.29,16.53h9.25l2.72-10.48c.61-2.33-1.66-4-3.24-4.54Z"/>
    </g>
</svg>