<?xml version="1.0" encoding="UTF-8"?>
<svg id="Layer_2" data-name="Layer 2" xmlns="http://www.w3.org/2000/svg" viewBox="0 0 108.02 60">
  <defs>
    <style>
      .cls-1 {
        fill: #000;
      }
    </style>
  </defs>
  <g id="Layer_1-2" data-name="Layer 1">
    <path class="cls-1" d="M59.4,36h0c.39-1.94.6-3.95.6-6,0-2.41-.29-4.75-.83-6.99h0l-.03-.08c-.41-1.68-.95-3.3-1.63-4.86l-.02-.06h0C52.87,7.41,42.3,0,30,0S7.13,7.41,2.5,18.01h0l-.02.06c-.68,1.56-1.22,3.18-1.63,4.86l-.03.08h0c-.54,2.24-.83,4.58-.83,6.99,0,2.05.21,4.06.6,6h0,0c.34,1.7.84,3.33,1.45,4.9l.03.1h0c4.39,11.12,15.23,19,27.91,19s23.52-7.88,27.91-19h0l.03-.1c.61-1.57,1.11-3.2,1.45-4.89h0ZM55,30c0,2.07-.26,4.08-.73,6h-13.14c.15-1.94.23-3.95.23-6,0-2.41-.11-4.75-.31-6.99h12.95c.65,2.22,1,4.57,1,6.99ZM30,54.94c-.59-.38-2.25-2.1-3.78-6.7-.72-2.16-1.29-4.62-1.72-7.25h11c-.43,2.63-1,5.08-1.72,7.25-1.54,4.6-3.19,6.31-3.78,6.7ZM23.9,36c-.16-1.95-.25-3.96-.25-6,0-2.39.12-4.73.34-6.99h12.04c.22,2.26.34,4.6.34,6.99,0,2.04-.09,4.05-.25,6h-12.21ZM30,5.06c.59.38,2.25,2.1,3.78,6.7.63,1.89,1.15,4,1.56,6.25h-10.68c.41-2.26.93-4.36,1.56-6.25,1.54-4.6,3.19-6.31,3.78-6.7ZM51.93,18.01h-11.52c-.8-4.81-2.05-8.96-3.62-12.06,6.51,1.84,11.95,6.25,15.14,12.06ZM23.21,5.94c-1.57,3.1-2.83,7.25-3.62,12.06h-11.52c3.19-5.82,8.63-10.22,15.14-12.06ZM5,30c0-2.43.35-4.77,1-6.99h12.95c-.2,2.24-.31,4.58-.31,6.99,0,2.05.08,4.06.23,6H5.73c-.48-1.92-.73-3.93-.73-6ZM7.56,41h11.88c.78,5.23,2.1,9.74,3.78,13.06-6.87-1.94-12.55-6.75-15.66-13.06ZM36.79,54.06c1.68-3.31,3-7.83,3.78-13.06h11.88c-3.1,6.3-8.78,11.11-15.66,13.06Z"/>
    <path class="cls-1" d="M108.02,30c0-2.41-.29-4.75-.83-6.99h0l-.03-.08c-.41-1.68-.95-3.3-1.63-4.86l-.02-.06h0C100.89,7.41,90.33,0,78.02,0c-8.36,0-15.9,3.42-21.34,8.94,1.06,1.34,2.02,2.76,2.87,4.25,3.1-3.41,7.13-5.96,11.69-7.24-1.57,3.1-2.83,7.25-3.62,12.06h-5.79c.61,1.61,1.1,3.28,1.46,5h3.7c-.2,2.24-.31,4.58-.31,6.99,0,2.05.08,4.06.23,6h-3.43c-.31,1.71-.74,3.38-1.29,5h5.29c.78,5.23,2.1,9.74,3.78,13.06-4.56-1.29-8.58-3.84-11.69-7.25-.85,1.49-1.81,2.91-2.86,4.24,5.44,5.51,12.98,8.95,21.33,8.95,12.68,0,23.52-7.88,27.91-19h0l.03-.1c.61-1.57,1.11-3.2,1.45-4.89h0s0,0,0,0c.39-1.94.6-3.95.6-6ZM99.95,18.01h-11.52c-.8-4.81-2.05-8.96-3.62-12.06,6.51,1.84,11.95,6.25,15.14,12.06ZM74.24,11.75c1.54-4.6,3.19-6.31,3.78-6.7.59.38,2.25,2.1,3.78,6.7.63,1.89,1.15,4,1.56,6.25h-10.68c.41-2.26.93-4.36,1.56-6.25ZM81.8,48.25c-1.54,4.6-3.19,6.31-3.78,6.7-.59-.38-2.25-2.1-3.78-6.7-.72-2.16-1.29-4.62-1.72-7.25h11c-.43,2.63-1,5.08-1.72,7.25ZM84.13,36h-12.21c-.16-1.95-.25-3.96-.25-6,0-2.39.12-4.73.34-6.99h12.04c.22,2.26.34,4.6.34,6.99,0,2.04-.09,4.05-.25,6ZM84.81,54.06c1.68-3.31,3-7.83,3.78-13.06h11.88c-3.1,6.3-8.78,11.11-15.66,13.06ZM102.29,36h-13.14c.15-1.94.23-3.95.23-6,0-2.41-.11-4.75-.31-6.99h12.95c.65,2.22,1,4.57,1,6.99,0,2.07-.26,4.08-.73,6Z"/>
  </g>
</svg>