<?xml version="1.0" encoding="UTF-8"?>
<svg id="Layer_6" data-name="Layer 6" xmlns="http://www.w3.org/2000/svg" viewBox="0 0 676 212">
  <defs>
    <style>
      .cls-1 {
        fill: #fff;
      }

      .cls-2 {
        fill: #bfbfbf;
      }
    </style>
  </defs>
  <path class="cls-2" d="M160.88,103.12l-26.05-26.05h-52.1l26.05,26.05h26.05l91.17,91.17v-26.05l-65.12-65.12ZM106.17,108.33L15,17.16v26.05s65.12,65.12,65.12,65.12l26.05,26.05h52.1s-26.05-26.05-26.05-26.05h-26.05Z"/>
  <g>
    <path class="cls-1" d="M258.63,122.44v-27.63h5.69v4.59c1.67-1.85,3.19-3.21,4.55-4.07s2.88-1.29,4.55-1.29c2.5,0,4.64.83,6.41,2.48s2.66,3.64,2.66,5.96v19.96h-5.83v-18.25c0-1.5-.49-2.73-1.46-3.72s-2.21-1.47-3.7-1.47c-1.94,0-3.62.82-5.02,2.46-1.41,1.64-2.11,3.62-2.11,5.94v15.04h-5.76Z"/>
    <path class="cls-1" d="M288.67,85.74c0-1.21.45-2.25,1.34-3.13.89-.88,1.95-1.32,3.18-1.32s2.25.44,3.13,1.32c.88.88,1.32,1.93,1.32,3.13s-.44,2.28-1.32,3.15c-.88.87-1.93,1.31-3.13,1.31s-2.29-.43-3.18-1.31c-.89-.87-1.34-1.92-1.34-3.15ZM290.31,94.81h5.76v27.63h-5.76v-27.63Z"/>
    <path class="cls-1" d="M327.79,94.81h5.69v26.52c0,3.91-1.35,7.23-4.04,9.96-2.69,2.73-5.94,4.1-9.76,4.1-2.9,0-5.57-.79-8-2.36-2.43-1.57-4.22-3.97-5.36-7.18h6.03c1.81,2.99,4.32,4.49,7.53,4.49,2.19,0,4.05-.79,5.59-2.36,1.54-1.57,2.31-3.47,2.31-5.68v-5.22c-2.81,4.09-6.36,6.13-10.65,6.13-3.53,0-6.6-1.46-9.23-4.37-2.62-2.91-3.93-6.36-3.93-10.33s1.28-7.38,3.83-10.21c2.56-2.83,5.6-4.25,9.13-4.25,4.55,0,8.17,2.2,10.85,6.6v-5.83ZM328.59,108.57c0-2.59-.9-4.75-2.7-6.5-1.8-1.74-4.02-2.61-6.68-2.61-2.43,0-4.58.9-6.43,2.71-1.85,1.81-2.78,3.9-2.78,6.26,0,2.57.92,4.78,2.75,6.63,1.83,1.85,4.01,2.78,6.53,2.78s4.76-.9,6.58-2.71c1.82-1.81,2.73-4,2.73-6.56Z"/>
    <path class="cls-1" d="M341.35,78.97h5.83v20.36c1.61-1.85,3.11-3.2,4.5-4.04,1.4-.84,3.1-1.26,5.11-1.26,2.34,0,4.37.9,6.08,2.7,1.71,1.8,2.56,3.95,2.56,6.45v19.26h-5.83v-17.61c0-1.74-.44-3.14-1.32-4.19-.88-1.05-2.05-1.57-3.5-1.57-2.1,0-3.89.79-5.37,2.38-1.49,1.59-2.23,3.51-2.23,5.76v15.24h-5.83v-43.47Z"/>
    <path class="cls-1" d="M374.53,86.77h5.83v8.04h5.76v5.32h-5.76v22.3h-5.83v-22.3h-4.59v-5.39h4.59v-7.97Z"/>
    <path class="cls-1" d="M426.84,98.09l-3.88,3.42c-1-.71-1.88-1.26-2.61-1.62s-1.61-.55-2.61-.55c-2.37,0-3.55.87-3.55,2.61,0,1.25,1.5,2.46,4.5,3.64,3,1.18,5.16,2.47,6.48,3.87,1.32,1.41,1.98,3.1,1.98,5.08,0,2.32-.95,4.34-2.85,6.07s-4.13,2.59-6.7,2.59c-3.91,0-7.11-1.81-9.61-5.42l4.59-2.21c1.61,1.56,3.28,2.34,5.02,2.34,1.21,0,2.26-.33,3.16-.99.9-.66,1.36-1.42,1.36-2.29,0-1.54-1.59-2.93-4.76-4.16-3.17-1.23-5.36-2.48-6.58-3.74s-1.82-2.82-1.82-4.67c0-2.3.86-4.21,2.6-5.74,1.73-1.53,3.9-2.29,6.51-2.29s5.54,1.35,8.77,4.05Z"/>
    <path class="cls-1" d="M432.67,78.97h5.83v27.96l11.42-12.12h7.54l-11.92,12.76,12.05,14.87h-7.21l-11.88-14.6v14.6h-5.83v-43.47Z"/>
    <path class="cls-1" d="M461.27,94.81h6.61l10.02,15.01,6.93-15.01h6.01l-18.66,40.59h-6.08l9.12-19.76-13.94-20.83Z"/>
    <path class="cls-1" d="M532.93,98.09l-3.88,3.42c-1-.71-1.88-1.26-2.61-1.62s-1.61-.55-2.61-.55c-2.37,0-3.55.87-3.55,2.61,0,1.25,1.5,2.46,4.5,3.64,3,1.18,5.16,2.47,6.48,3.87,1.32,1.41,1.98,3.1,1.98,5.08,0,2.32-.95,4.34-2.85,6.07s-4.13,2.59-6.7,2.59c-3.91,0-7.11-1.81-9.61-5.42l4.59-2.21c1.61,1.56,3.28,2.34,5.02,2.34,1.21,0,2.26-.33,3.16-.99.9-.66,1.36-1.42,1.36-2.29,0-1.54-1.59-2.93-4.76-4.16-3.17-1.23-5.36-2.48-6.58-3.74s-1.82-2.82-1.82-4.67c0-2.3.86-4.21,2.6-5.74,1.73-1.53,3.9-2.29,6.51-2.29s5.54,1.35,8.77,4.05Z"/>
    <path class="cls-1" d="M540.97,86.77h5.83v8.04h5.76v5.32h-5.76v22.3h-5.83v-22.3h-4.59v-5.39h4.59v-7.97Z"/>
    <path class="cls-1" d="M556.67,94.81h5.83v15.57c0,4.8,2.11,7.2,6.33,7.2,1.88,0,3.36-.64,4.45-1.93,1.09-1.28,1.64-3.04,1.64-5.27v-15.57h5.76v16.51c0,3.46-1.13,6.31-3.38,8.54-2.26,2.23-5.14,3.35-8.64,3.35s-6.46-1.12-8.67-3.35c-2.21-2.23-3.32-5.15-3.32-8.74v-16.31Z"/>
    <path class="cls-1" d="M610.89,78.97h5.76v43.47h-5.69v-5.76c-2.75,4.35-6.35,6.53-10.8,6.53-3.6,0-6.68-1.44-9.26-4.32s-3.86-6.34-3.86-10.38,1.31-7.35,3.92-10.2,5.73-4.27,9.36-4.27c2.17,0,4.19.6,6.07,1.81,1.88,1.21,3.38,2.78,4.49,4.72v-21.6ZM611.56,108.57c0-2.48-.91-4.63-2.72-6.45-1.81-1.82-3.97-2.73-6.47-2.73s-4.79.89-6.59,2.66c-1.8,1.77-2.7,3.95-2.7,6.51s.92,4.6,2.75,6.45,3.97,2.76,6.41,2.76c2.59,0,4.8-.89,6.61-2.68,1.81-1.79,2.72-3.96,2.72-6.53Z"/>
    <path class="cls-1" d="M624.49,85.74c0-1.21.45-2.25,1.34-3.13.89-.88,1.95-1.32,3.18-1.32s2.25.44,3.13,1.32c.88.88,1.32,1.93,1.32,3.13s-.44,2.28-1.32,3.15c-.88.87-1.93,1.31-3.13,1.31s-2.29-.43-3.18-1.31c-.89-.87-1.34-1.92-1.34-3.15ZM626.13,94.81h5.76v27.63h-5.76v-27.63Z"/>
    <path class="cls-1" d="M639.05,108.51c0-3.77,1.49-7.13,4.47-10.06,2.98-2.94,6.4-4.4,10.26-4.4s7.45,1.45,10.41,4.34,4.45,6.27,4.45,10.13-1.46,7.31-4.37,10.26c-2.91,2.96-6.28,4.44-10.1,4.44-4.09,0-7.63-1.46-10.63-4.39-3-2.92-4.5-6.36-4.5-10.31ZM663.03,108.52c0-2.35-.89-4.39-2.68-6.12s-3.91-2.6-6.36-2.6-4.69.88-6.51,2.63c-1.82,1.76-2.73,3.85-2.73,6.29s.92,4.36,2.76,6.11,4,2.62,6.48,2.62,4.52-.89,6.33-2.68c1.81-1.79,2.71-3.87,2.71-6.24Z"/>
  </g>
</svg>