<?xml version="1.0" encoding="UTF-8" standalone="no"?>
<!-- Created with Inkscape (http://www.inkscape.org/) -->

<svg
   width="14mm"
   height="14mm"
   viewBox="0 0 14 14"
   version="1.1"
   id="svg1"
   inkscape:version="1.4 (86a8ad7, 2024-10-11)"
   sodipodi:docname="RpRecover.svg"
   xml:space="preserve"
   xmlns:inkscape="http://www.inkscape.org/namespaces/inkscape"
   xmlns:sodipodi="http://sodipodi.sourceforge.net/DTD/sodipodi-0.dtd"
   xmlns="http://www.w3.org/2000/svg"
   xmlns:svg="http://www.w3.org/2000/svg"><sodipodi:namedview
     id="namedview1"
     pagecolor="#505050"
     bordercolor="#ffffff"
     borderopacity="0.08235294"
     inkscape:showpageshadow="0"
     inkscape:pageopacity="0"
     inkscape:pagecheckerboard="1"
     inkscape:deskcolor="#3f3f3f"
     inkscape:document-units="mm"
     inkscape:zoom="7.2407734"
     inkscape:cx="23.340048"
     inkscape:cy="22.718567"
     inkscape:window-width="1970"
     inkscape:window-height="1211"
     inkscape:window-x="664"
     inkscape:window-y="82"
     inkscape:window-maximized="0"
     inkscape:current-layer="layer1"
     showguides="true"><sodipodi:guide
       position="6.9965301,14.003437"
       orientation="1,0"
       id="guide1"
       inkscape:locked="false" /></sodipodi:namedview><defs
     id="defs1" /><g
     inkscape:label="Layer 1"
     inkscape:groupmode="layer"
     id="layer1"><path
       id="path3"
       style="fill:currentColor;stroke-width:0.894903;stroke-linecap:square;stroke-dashoffset:3.77952;opacity:1"
       d="M 6.9964722 -0.0036173503 L 4.997111 3.96875 C 4.7728082 4.4143429 4.4108274 4.7759088 3.9651326 5.0002116 L -0.0067179362 7.0000895 L 3.9651326 8.9994507 C 4.410774 9.223948 4.7727159 9.5853682 4.997111 10.030912 L 6.9964722 14.00328 L 8.9963501 10.030912 C 9.2206042 9.5853197 9.5818476 9.2237536 10.027295 8.9994507 L 14.000179 7.0000895 L 10.027295 5.0002116 C 9.581799 4.7757143 9.2205557 4.4143915 8.9963501 3.96875 L 6.9964722 -0.0036173503 z M 12.122774 0.52761637 L 10.238652 3.0163534 L 11.463383 3.0163534 L 11.463383 4.1956095 L 12.782166 4.1956095 L 12.782166 3.0163534 L 14.006897 3.0163534 L 12.122774 0.52761637 z M 6.9923381 3.3264119 L 6.9964722 3.3315796 L 7.0006063 3.3264119 L 7.0006063 3.3362305 L 8.4170573 5.060673 L 7.0006063 6.6822795 L 7.0006063 6.6915812 L 6.9964722 6.6869303 L 6.9923381 6.6915812 L 6.9923381 6.6822795 L 5.575887 5.060673 L 6.9923381 3.3367472 L 6.9923381 3.3264119 z M 4.9743734 6.0461426 L 6.9964722 8.0899455 L 9.018571 6.0461426 L 9.018571 7.8010742 L 6.9964722 9.8453939 L 4.9743734 7.8010742 L 4.9743734 6.0461426 z " /></g></svg>
