<?xml version="1.0" encoding="UTF-8" standalone="no"?>
<!DOCTYPE svg PUBLIC "-//W3C//DTD SVG 1.1//EN" "http://www.w3.org/Graphics/SVG/1.1/DTD/svg11.dtd">
<svg width="100%" height="100%" viewBox="0 0 167 42" version="1.1" xmlns="http://www.w3.org/2000/svg" xmlns:xlink="http://www.w3.org/1999/xlink" xml:space="preserve" xmlns:serif="http://www.serif.com/" style="fill-rule:evenodd;clip-rule:evenodd;stroke-linejoin:round;stroke-miterlimit:2;">
    <g transform="matrix(4.18793,0,0,4.18793,-23.2527,-111.984)">
        <g transform="matrix(1,0,0,1,2.63613,11.8049)">
            <path d="M8.288,15.898L6.875,18.35L7.805,18.842L8.288,18.012L10.01,20.993L10.949,20.51L8.288,15.898ZM6.392,19.179L3.885,23.527L5.489,23.527L6.1,22.469L5.717,22.469L7.331,19.671L6.392,19.179ZM11.423,21.33L10.484,21.822L10.858,22.469L7.167,22.469L6.547,23.527L12.69,23.527L11.423,21.33Z" style="fill:url(#_Linear1);fill-rule:nonzero;"/>
        </g>
        <g transform="matrix(1,0,0,1,-6.72455,11.8049)">
            <path d="M17.648,19.781L16.527,20.902L17.648,22.023L18.769,20.902L17.648,19.781Z" style="fill:url(#_Linear2);fill-rule:nonzero;"/>
        </g>
    </g>
    <g id="Layer1">
        <g transform="matrix(1.08679,0,0,1.08679,-4.81344,-2.10565)">
            <g transform="matrix(16,0,0,16,31.564,30.9224)">
                <path d="M0.052,-0.791L0.543,-0.791C0.551,-0.791 0.558,-0.789 0.563,-0.784L0.586,-0.683L0.586,-0.67C0.583,-0.662 0.578,-0.658 0.571,-0.657C0.554,-0.683 0.527,-0.695 0.492,-0.693L0.253,-0.693L0.253,-0.479L0.524,-0.479C0.532,-0.476 0.536,-0.47 0.535,-0.462L0.535,-0.397C0.535,-0.388 0.53,-0.382 0.521,-0.382C0.36,-0.381 0.271,-0.381 0.253,-0.381L0.253,-0.153L0.482,-0.153C0.536,-0.157 0.563,-0.169 0.563,-0.19L0.575,-0.19C0.582,-0.188 0.585,-0.183 0.586,-0.175L0.571,-0.042C0.568,-0.034 0.562,-0.03 0.554,-0.03L0.103,-0.03C0.091,-0.036 0.086,-0.048 0.087,-0.064L0.087,-0.674C0.087,-0.714 0.065,-0.745 0.021,-0.768C0.026,-0.783 0.036,-0.791 0.052,-0.791Z" style="fill:#fff;fill-rule:nonzero;"/>
            </g>
            <g transform="matrix(16,0,0,16,41.3453,30.9224)">
                <path d="M0.368,-0.573C0.481,-0.567 0.546,-0.52 0.562,-0.432C0.564,-0.406 0.565,-0.386 0.565,-0.372L0.566,-0.129C0.569,-0.079 0.551,-0.05 0.512,-0.04C0.473,-0.029 0.442,-0.026 0.417,-0.029C0.412,-0.029 0.409,-0.032 0.409,-0.036L0.409,-0.376C0.409,-0.448 0.382,-0.483 0.328,-0.483C0.292,-0.483 0.262,-0.468 0.238,-0.438L0.238,-0.092C0.24,-0.051 0.226,-0.03 0.195,-0.028C0.136,-0.029 0.102,-0.029 0.093,-0.029C0.087,-0.03 0.083,-0.034 0.082,-0.04L0.082,-0.417C0.082,-0.453 0.061,-0.484 0.019,-0.51L0.019,-0.514C0.019,-0.521 0.025,-0.527 0.035,-0.529C0.131,-0.55 0.192,-0.562 0.22,-0.565C0.226,-0.565 0.23,-0.562 0.23,-0.556L0.23,-0.521C0.268,-0.556 0.314,-0.573 0.368,-0.573Z" style="fill:#fff;fill-rule:nonzero;"/>
            </g>
            <g transform="matrix(16,0,0,16,52.3453,30.9224)">
                <path d="M0.218,-0.81C0.223,-0.808 0.225,-0.805 0.225,-0.799L0.225,-0.318L0.355,-0.463C0.365,-0.493 0.35,-0.516 0.31,-0.529L0.31,-0.533C0.312,-0.541 0.316,-0.546 0.324,-0.547L0.561,-0.547C0.568,-0.546 0.573,-0.541 0.575,-0.533L0.575,-0.529C0.557,-0.525 0.538,-0.514 0.519,-0.496L0.382,-0.353L0.382,-0.348C0.479,-0.184 0.537,-0.094 0.558,-0.078C0.575,-0.063 0.594,-0.052 0.617,-0.045L0.617,-0.037C0.617,-0.034 0.614,-0.03 0.606,-0.026L0.529,-0.026C0.443,-0.026 0.381,-0.066 0.343,-0.146C0.31,-0.201 0.289,-0.237 0.281,-0.252C0.278,-0.252 0.259,-0.232 0.225,-0.192L0.225,-0.175C0.225,-0.092 0.177,-0.044 0.083,-0.03C0.076,-0.029 0.073,-0.033 0.073,-0.041L0.073,-0.666C0.073,-0.701 0.053,-0.729 0.013,-0.751C0.012,-0.763 0.018,-0.77 0.031,-0.773L0.218,-0.81Z" style="fill:#fff;fill-rule:nonzero;"/>
            </g>
            <g transform="matrix(16,0,0,16,62.8921,30.9224)">
                <path d="M0.244,-0.115C0.268,-0.115 0.288,-0.122 0.305,-0.136C0.321,-0.149 0.329,-0.168 0.329,-0.19L0.329,-0.296C0.317,-0.294 0.305,-0.291 0.292,-0.287C0.278,-0.283 0.265,-0.279 0.253,-0.274C0.229,-0.265 0.211,-0.252 0.199,-0.236C0.187,-0.219 0.181,-0.201 0.181,-0.18C0.181,-0.159 0.186,-0.143 0.198,-0.132C0.209,-0.121 0.225,-0.115 0.244,-0.115ZM0.273,-0.576C0.378,-0.576 0.444,-0.536 0.473,-0.457C0.479,-0.44 0.483,-0.419 0.484,-0.395L0.484,-0.229C0.484,-0.125 0.503,-0.067 0.539,-0.056C0.546,-0.056 0.549,-0.053 0.549,-0.049L0.549,-0.045C0.549,-0.041 0.546,-0.037 0.539,-0.033L0.458,-0.033C0.41,-0.033 0.378,-0.058 0.361,-0.108L0.361,-0.111L0.357,-0.111C0.328,-0.057 0.28,-0.03 0.214,-0.029C0.093,-0.03 0.032,-0.079 0.031,-0.176C0.032,-0.277 0.131,-0.343 0.328,-0.372L0.328,-0.409C0.327,-0.464 0.305,-0.493 0.262,-0.498L0.243,-0.498C0.196,-0.49 0.172,-0.459 0.17,-0.406C0.17,-0.395 0.166,-0.39 0.158,-0.391L0.065,-0.391C0.06,-0.39 0.057,-0.394 0.055,-0.401L0.055,-0.421C0.055,-0.492 0.099,-0.54 0.188,-0.565C0.213,-0.573 0.242,-0.576 0.273,-0.576Z" style="fill:#fff;fill-rule:nonzero;"/>
            </g>
            <g transform="matrix(16,0,0,16,71.5953,30.9224)">
                <path d="M0.05,-0.122C0.05,-0.149 0.058,-0.172 0.076,-0.189C0.093,-0.206 0.116,-0.215 0.146,-0.215C0.175,-0.215 0.198,-0.206 0.215,-0.189C0.233,-0.172 0.241,-0.149 0.241,-0.122C0.241,-0.095 0.233,-0.072 0.215,-0.055C0.198,-0.037 0.175,-0.028 0.146,-0.028C0.116,-0.028 0.093,-0.037 0.076,-0.055C0.058,-0.072 0.05,-0.095 0.05,-0.122Z" style="fill:#fff;fill-rule:nonzero;"/>
            </g>
            <g transform="matrix(16,0,0,16,76.4234,30.9224)">
                <path d="M0.043,-0.793L0.233,-0.793C0.256,-0.794 0.272,-0.786 0.282,-0.77L0.593,-0.331L0.593,-0.646C0.593,-0.707 0.569,-0.749 0.521,-0.773C0.525,-0.787 0.535,-0.794 0.549,-0.793L0.764,-0.793C0.771,-0.79 0.777,-0.785 0.78,-0.778L0.78,-0.77C0.731,-0.758 0.706,-0.721 0.704,-0.658L0.704,-0.048C0.703,-0.04 0.698,-0.035 0.688,-0.031L0.627,-0.031C0.6,-0.031 0.576,-0.046 0.558,-0.074L0.198,-0.606L0.198,-0.159C0.198,-0.096 0.174,-0.055 0.127,-0.035C0.107,-0.029 0.095,-0.026 0.09,-0.026L0.086,-0.035L0.086,-0.646C0.086,-0.707 0.062,-0.749 0.015,-0.773C0.019,-0.786 0.028,-0.793 0.043,-0.793ZM0.09,-0.026C0.087,-0.026 0.086,-0.029 0.086,-0.034C0.086,-0.039 0.087,-0.041 0.09,-0.041C0.094,-0.041 0.096,-0.039 0.096,-0.034C0.096,-0.029 0.094,-0.026 0.09,-0.026Z" style="fill:#fff;fill-rule:nonzero;"/>
            </g>
            <g transform="matrix(16,0,0,16,89.4703,30.9224)">
                <path d="M0.275,-0.501C0.253,-0.501 0.233,-0.489 0.216,-0.466C0.198,-0.443 0.189,-0.404 0.189,-0.348L0.381,-0.348C0.383,-0.396 0.374,-0.434 0.353,-0.461C0.333,-0.488 0.307,-0.502 0.275,-0.501ZM0.276,-0.573C0.401,-0.573 0.484,-0.515 0.525,-0.399C0.538,-0.362 0.541,-0.322 0.536,-0.28C0.537,-0.266 0.531,-0.259 0.52,-0.259L0.192,-0.257C0.188,-0.258 0.186,-0.256 0.188,-0.249C0.188,-0.18 0.223,-0.139 0.292,-0.125C0.361,-0.111 0.426,-0.125 0.486,-0.169C0.488,-0.171 0.491,-0.171 0.493,-0.17C0.501,-0.164 0.51,-0.155 0.52,-0.144C0.523,-0.14 0.524,-0.136 0.521,-0.133C0.455,-0.058 0.374,-0.023 0.277,-0.028C0.158,-0.033 0.077,-0.092 0.033,-0.206C0.027,-0.232 0.025,-0.256 0.025,-0.277L0.025,-0.314C0.046,-0.485 0.129,-0.571 0.276,-0.573Z" style="fill:#fff;fill-rule:nonzero;"/>
            </g>
            <g transform="matrix(16,0,0,16,98.3765,30.9224)">
                <path d="M0.248,-0.738C0.257,-0.738 0.261,-0.734 0.262,-0.726L0.262,-0.561L0.416,-0.561C0.421,-0.56 0.424,-0.557 0.424,-0.553C0.42,-0.533 0.411,-0.516 0.397,-0.504C0.384,-0.492 0.366,-0.485 0.344,-0.484L0.262,-0.484L0.262,-0.187C0.262,-0.136 0.284,-0.111 0.327,-0.111C0.356,-0.113 0.381,-0.118 0.401,-0.129C0.407,-0.132 0.412,-0.131 0.415,-0.127C0.421,-0.117 0.425,-0.11 0.427,-0.105C0.422,-0.085 0.405,-0.067 0.376,-0.052C0.347,-0.036 0.311,-0.028 0.266,-0.028C0.18,-0.028 0.129,-0.054 0.114,-0.105C0.109,-0.121 0.107,-0.144 0.107,-0.173L0.107,-0.484L0.046,-0.484C0.036,-0.484 0.031,-0.489 0.031,-0.499L0.031,-0.55C0.031,-0.556 0.035,-0.559 0.042,-0.561L0.107,-0.561L0.108,-0.619C0.11,-0.643 0.101,-0.656 0.08,-0.656C0.079,-0.673 0.086,-0.683 0.1,-0.688L0.248,-0.738Z" style="fill:#fff;fill-rule:nonzero;"/>
            </g>
            <g transform="matrix(16,0,0,16,106.392,30.9224)">
                <path d="M0.024,-0.55L0.272,-0.55C0.289,-0.55 0.298,-0.542 0.298,-0.527C0.265,-0.521 0.247,-0.504 0.245,-0.475L0.248,-0.447L0.304,-0.238L0.309,-0.238L0.304,-0.238L0.441,-0.524L0.485,-0.524C0.496,-0.526 0.505,-0.52 0.511,-0.508L0.618,-0.251L0.621,-0.251L0.689,-0.47L0.689,-0.478C0.691,-0.5 0.677,-0.518 0.646,-0.531L0.646,-0.535C0.65,-0.546 0.659,-0.55 0.672,-0.55L0.839,-0.55C0.856,-0.55 0.864,-0.542 0.864,-0.527C0.828,-0.52 0.804,-0.502 0.79,-0.474L0.638,-0.045C0.636,-0.035 0.629,-0.03 0.616,-0.029L0.572,-0.029C0.559,-0.029 0.551,-0.035 0.549,-0.047L0.44,-0.319L0.437,-0.319L0.304,-0.037C0.297,-0.032 0.29,-0.029 0.283,-0.029L0.251,-0.029C0.234,-0.028 0.224,-0.034 0.22,-0.046L0.084,-0.451C0.063,-0.499 0.035,-0.524 0.002,-0.524L-0.001,-0.531L-0.001,-0.535C0.003,-0.545 0.011,-0.55 0.024,-0.55Z" style="fill:#fff;fill-rule:nonzero;"/>
            </g>
            <g transform="matrix(16,0,0,16,120.08,30.9224)">
                <path d="M0.053,-0.304C0.053,-0.345 0.059,-0.382 0.071,-0.416C0.084,-0.45 0.102,-0.479 0.126,-0.503C0.15,-0.527 0.179,-0.546 0.214,-0.56C0.248,-0.574 0.287,-0.581 0.331,-0.581C0.375,-0.581 0.415,-0.574 0.449,-0.56C0.484,-0.546 0.513,-0.527 0.537,-0.503C0.561,-0.479 0.579,-0.45 0.592,-0.416C0.604,-0.382 0.61,-0.345 0.61,-0.304C0.61,-0.263 0.604,-0.225 0.592,-0.191C0.579,-0.158 0.561,-0.129 0.537,-0.104C0.513,-0.08 0.484,-0.061 0.449,-0.047C0.415,-0.033 0.375,-0.026 0.331,-0.026C0.287,-0.026 0.248,-0.033 0.213,-0.047C0.179,-0.061 0.15,-0.08 0.126,-0.104C0.102,-0.129 0.084,-0.158 0.071,-0.191C0.059,-0.225 0.053,-0.263 0.053,-0.304ZM0.216,-0.304C0.216,-0.243 0.226,-0.196 0.247,-0.162C0.267,-0.127 0.295,-0.11 0.331,-0.11C0.368,-0.11 0.396,-0.127 0.417,-0.162C0.437,-0.196 0.447,-0.243 0.447,-0.304C0.447,-0.364 0.437,-0.412 0.417,-0.446C0.396,-0.48 0.368,-0.497 0.331,-0.497C0.295,-0.497 0.266,-0.48 0.246,-0.446C0.226,-0.412 0.216,-0.364 0.216,-0.304Z" style="fill:#fff;fill-rule:nonzero;"/>
            </g>
            <g transform="matrix(16,0,0,16,130.877,30.9224)">
                <path d="M0.363,-0.565C0.44,-0.567 0.482,-0.514 0.488,-0.408L0.488,-0.394C0.488,-0.386 0.485,-0.382 0.479,-0.382L0.389,-0.382C0.383,-0.382 0.381,-0.386 0.382,-0.394C0.377,-0.429 0.366,-0.449 0.349,-0.455L0.337,-0.456C0.31,-0.456 0.278,-0.429 0.241,-0.375C0.237,-0.367 0.234,-0.359 0.234,-0.353L0.234,-0.197C0.234,-0.109 0.198,-0.054 0.126,-0.032C0.121,-0.03 0.109,-0.029 0.09,-0.028C0.085,-0.03 0.083,-0.033 0.082,-0.038L0.082,-0.402C0.082,-0.445 0.063,-0.478 0.023,-0.502C0.024,-0.514 0.029,-0.521 0.039,-0.522C0.141,-0.547 0.201,-0.56 0.218,-0.562C0.224,-0.562 0.226,-0.558 0.225,-0.551L0.225,-0.437L0.228,-0.437C0.265,-0.523 0.311,-0.566 0.363,-0.565Z" style="fill:#fff;fill-rule:nonzero;"/>
            </g>
            <g transform="matrix(16,0,0,16,139.47,30.9224)">
                <path d="M0.218,-0.81C0.223,-0.808 0.225,-0.805 0.225,-0.799L0.225,-0.318L0.355,-0.463C0.365,-0.493 0.35,-0.516 0.31,-0.529L0.31,-0.533C0.312,-0.541 0.316,-0.546 0.324,-0.547L0.561,-0.547C0.568,-0.546 0.573,-0.541 0.575,-0.533L0.575,-0.529C0.557,-0.525 0.538,-0.514 0.519,-0.496L0.382,-0.353L0.382,-0.348C0.479,-0.184 0.537,-0.094 0.558,-0.078C0.575,-0.063 0.594,-0.052 0.617,-0.045L0.617,-0.037C0.617,-0.034 0.614,-0.03 0.606,-0.026L0.529,-0.026C0.443,-0.026 0.381,-0.066 0.343,-0.146C0.31,-0.201 0.289,-0.237 0.281,-0.252C0.278,-0.252 0.259,-0.232 0.225,-0.192L0.225,-0.175C0.225,-0.092 0.177,-0.044 0.083,-0.03C0.076,-0.029 0.073,-0.033 0.073,-0.041L0.073,-0.666C0.073,-0.701 0.053,-0.729 0.013,-0.751C0.012,-0.763 0.018,-0.77 0.031,-0.773L0.218,-0.81Z" style="fill:#fff;fill-rule:nonzero;"/>
            </g>
        </g>
        <g transform="matrix(1.09748,0,0,1.09748,-4.0188,-1.42331)">
            <g transform="matrix(9.33333,0,0,9.33333,31.0434,14.0926)">
                <path d="M0.174,-0.265L0.174,-0L0.092,-0L0.092,-0.7L0.284,-0.7C0.359,-0.7 0.417,-0.682 0.458,-0.646C0.499,-0.609 0.52,-0.558 0.52,-0.491C0.52,-0.425 0.497,-0.37 0.451,-0.328C0.406,-0.286 0.344,-0.265 0.266,-0.265L0.174,-0.265ZM0.174,-0.626L0.174,-0.339L0.26,-0.339C0.316,-0.339 0.36,-0.352 0.389,-0.378C0.419,-0.404 0.434,-0.44 0.434,-0.487C0.434,-0.58 0.379,-0.626 0.27,-0.626L0.174,-0.626Z" style="fill:url(#_Linear3);fill-rule:nonzero;"/>
            </g>
            <g transform="matrix(9.33333,0,0,9.33333,35.9243,14.0926)">
                <path d="M0.29,0.012C0.216,0.012 0.157,-0.012 0.113,-0.058C0.069,-0.105 0.047,-0.167 0.047,-0.244C0.047,-0.328 0.07,-0.394 0.116,-0.441C0.162,-0.488 0.224,-0.512 0.302,-0.512C0.376,-0.512 0.434,-0.489 0.476,-0.443C0.518,-0.397 0.539,-0.333 0.539,-0.252C0.539,-0.172 0.517,-0.108 0.471,-0.06C0.426,-0.012 0.366,0.012 0.29,0.012ZM0.296,-0.444C0.244,-0.444 0.204,-0.427 0.174,-0.392C0.144,-0.357 0.129,-0.309 0.129,-0.247C0.129,-0.188 0.144,-0.141 0.174,-0.107C0.205,-0.073 0.245,-0.056 0.296,-0.056C0.348,-0.056 0.387,-0.072 0.415,-0.106C0.443,-0.139 0.457,-0.187 0.457,-0.249C0.457,-0.312 0.443,-0.36 0.415,-0.394C0.387,-0.427 0.348,-0.444 0.296,-0.444Z" style="fill:url(#_Linear4);fill-rule:nonzero;"/>
            </g>
            <g transform="matrix(9.33333,0,0,9.33333,41.3931,14.0926)">
                <path d="M0.711,-0.5L0.561,-0L0.478,-0L0.375,-0.358C0.371,-0.372 0.368,-0.387 0.367,-0.404L0.365,-0.404C0.364,-0.393 0.361,-0.377 0.355,-0.359L0.243,-0L0.163,-0L0.012,-0.5L0.096,-0.5L0.199,-0.124C0.202,-0.113 0.205,-0.098 0.206,-0.079L0.21,-0.079C0.211,-0.093 0.214,-0.109 0.219,-0.125L0.334,-0.5L0.407,-0.5L0.511,-0.123C0.514,-0.111 0.516,-0.096 0.518,-0.078L0.522,-0.078C0.523,-0.091 0.525,-0.106 0.53,-0.123L0.632,-0.5L0.711,-0.5Z" style="fill:url(#_Linear5);fill-rule:nonzero;"/>
            </g>
            <g transform="matrix(9.33333,0,0,9.33333,48.1378,14.0926)">
                <path d="M0.483,-0.23L0.13,-0.23C0.131,-0.174 0.146,-0.131 0.175,-0.101C0.203,-0.071 0.243,-0.056 0.293,-0.056C0.349,-0.056 0.401,-0.074 0.448,-0.111L0.448,-0.036C0.404,-0.004 0.346,0.012 0.274,0.012C0.203,0.012 0.148,-0.011 0.107,-0.056C0.067,-0.102 0.047,-0.166 0.047,-0.248C0.047,-0.326 0.069,-0.389 0.113,-0.438C0.157,-0.487 0.212,-0.512 0.277,-0.512C0.343,-0.512 0.393,-0.491 0.429,-0.448C0.465,-0.406 0.483,-0.347 0.483,-0.272L0.483,-0.23ZM0.401,-0.298C0.401,-0.344 0.389,-0.38 0.367,-0.406C0.345,-0.431 0.315,-0.444 0.276,-0.444C0.238,-0.444 0.206,-0.431 0.18,-0.404C0.153,-0.377 0.137,-0.341 0.131,-0.298L0.401,-0.298Z" style="fill:url(#_Linear6);fill-rule:nonzero;"/>
            </g>
            <g transform="matrix(9.33333,0,0,9.33333,53.0187,14.0926)">
                <path d="M0.342,-0.419C0.328,-0.43 0.308,-0.435 0.281,-0.435C0.247,-0.435 0.219,-0.419 0.196,-0.387C0.173,-0.354 0.161,-0.311 0.161,-0.255L0.161,-0L0.081,-0L0.081,-0.5L0.161,-0.5L0.161,-0.397L0.163,-0.397C0.174,-0.432 0.192,-0.46 0.215,-0.479C0.239,-0.499 0.265,-0.509 0.294,-0.509C0.315,-0.509 0.331,-0.507 0.342,-0.502L0.342,-0.419Z" style="fill:url(#_Linear7);fill-rule:nonzero;"/>
            </g>
            <g transform="matrix(9.33333,0,0,9.33333,56.2635,14.0926)">
                <path d="M0.483,-0.23L0.13,-0.23C0.131,-0.174 0.146,-0.131 0.175,-0.101C0.203,-0.071 0.243,-0.056 0.293,-0.056C0.349,-0.056 0.401,-0.074 0.448,-0.111L0.448,-0.036C0.404,-0.004 0.346,0.012 0.274,0.012C0.203,0.012 0.148,-0.011 0.107,-0.056C0.067,-0.102 0.047,-0.166 0.047,-0.248C0.047,-0.326 0.069,-0.389 0.113,-0.438C0.157,-0.487 0.212,-0.512 0.277,-0.512C0.343,-0.512 0.393,-0.491 0.429,-0.448C0.465,-0.406 0.483,-0.347 0.483,-0.272L0.483,-0.23ZM0.401,-0.298C0.401,-0.344 0.389,-0.38 0.367,-0.406C0.345,-0.431 0.315,-0.444 0.276,-0.444C0.238,-0.444 0.206,-0.431 0.18,-0.404C0.153,-0.377 0.137,-0.341 0.131,-0.298L0.401,-0.298Z" style="fill:url(#_Linear8);fill-rule:nonzero;"/>
            </g>
            <g transform="matrix(9.33333,0,0,9.33333,61.1444,14.0926)">
                <path d="M0.508,-0L0.428,-0L0.428,-0.085L0.426,-0.085C0.389,-0.021 0.331,0.012 0.254,0.012C0.191,0.012 0.141,-0.011 0.103,-0.055C0.066,-0.1 0.047,-0.161 0.047,-0.238C0.047,-0.321 0.068,-0.387 0.109,-0.437C0.151,-0.487 0.207,-0.512 0.276,-0.512C0.345,-0.512 0.395,-0.485 0.426,-0.431L0.428,-0.431L0.428,-0.74L0.508,-0.74L0.508,-0ZM0.428,-0.226L0.428,-0.3C0.428,-0.34 0.414,-0.374 0.388,-0.402C0.361,-0.43 0.327,-0.444 0.286,-0.444C0.237,-0.444 0.199,-0.426 0.171,-0.391C0.143,-0.355 0.129,-0.305 0.129,-0.242C0.129,-0.185 0.142,-0.139 0.169,-0.106C0.196,-0.072 0.232,-0.056 0.277,-0.056C0.322,-0.056 0.358,-0.072 0.386,-0.104C0.414,-0.136 0.428,-0.177 0.428,-0.226Z" style="fill:url(#_Linear9);fill-rule:nonzero;"/>
            </g>
            <g transform="matrix(9.33333,0,0,9.33333,69.1971,14.0926)">
                <path d="M0.163,-0.072L0.161,-0.072L0.161,-0L0.081,-0L0.081,-0.74L0.161,-0.74L0.161,-0.412L0.163,-0.412C0.202,-0.479 0.26,-0.512 0.336,-0.512C0.4,-0.512 0.45,-0.489 0.487,-0.445C0.523,-0.4 0.541,-0.34 0.541,-0.265C0.541,-0.181 0.521,-0.114 0.48,-0.064C0.439,-0.013 0.384,0.012 0.313,0.012C0.247,0.012 0.197,-0.016 0.163,-0.072ZM0.161,-0.274L0.161,-0.204C0.161,-0.163 0.175,-0.128 0.201,-0.099C0.228,-0.07 0.262,-0.056 0.304,-0.056C0.352,-0.056 0.39,-0.074 0.418,-0.111C0.445,-0.148 0.459,-0.2 0.459,-0.266C0.459,-0.322 0.446,-0.365 0.42,-0.397C0.395,-0.429 0.36,-0.444 0.316,-0.444C0.269,-0.444 0.232,-0.428 0.204,-0.396C0.175,-0.363 0.161,-0.323 0.161,-0.274Z" style="fill:url(#_Linear10);fill-rule:nonzero;"/>
            </g>
            <g transform="matrix(9.33333,0,0,9.33333,74.6841,14.0926)">
                <path d="M0.479,-0.5L0.249,0.08C0.208,0.184 0.15,0.235 0.076,0.235C0.055,0.235 0.038,0.233 0.024,0.229L0.024,0.157C0.041,0.163 0.057,0.166 0.071,0.166C0.112,0.166 0.142,0.142 0.162,0.094L0.202,-0.001L0.007,-0.5L0.096,-0.5L0.231,-0.115C0.233,-0.11 0.236,-0.098 0.241,-0.077L0.244,-0.077C0.246,-0.085 0.249,-0.097 0.254,-0.114L0.396,-0.5L0.479,-0.5Z" style="fill:url(#_Linear11);fill-rule:nonzero;"/>
            </g>
        </g>
    </g>
    <defs>
        <linearGradient id="_Linear1" x1="0" y1="0" x2="1" y2="0" gradientUnits="userSpaceOnUse" gradientTransform="matrix(8.80469,-7.62891,7.62891,8.80469,3.88528,23.5266)"><stop offset="0" style="stop-color:#94afc0;stop-opacity:1"/><stop offset="1" style="stop-color:#314f6d;stop-opacity:1"/></linearGradient>
        <linearGradient id="_Linear2" x1="0" y1="0" x2="1" y2="0" gradientUnits="userSpaceOnUse" gradientTransform="matrix(8.80469,-7.62891,7.62891,8.80469,13.246,23.5266)"><stop offset="0" style="stop-color:#94afc0;stop-opacity:1"/><stop offset="1" style="stop-color:#314f6d;stop-opacity:1"/></linearGradient>
        <linearGradient id="_Linear3" x1="0" y1="0" x2="1" y2="0" gradientUnits="userSpaceOnUse" gradientTransform="matrix(-7.69232,3.11909,-3.11909,-7.69232,5.15479,-0.977242)"><stop offset="0" style="stop-color:#94afc0;stop-opacity:1"/><stop offset="1" style="stop-color:#314f6d;stop-opacity:1"/></linearGradient>
        <linearGradient id="_Linear4" x1="0" y1="0" x2="1" y2="0" gradientUnits="userSpaceOnUse" gradientTransform="matrix(-7.69232,3.11909,-3.11909,-7.69232,4.63184,-0.977242)"><stop offset="0" style="stop-color:#94afc0;stop-opacity:1"/><stop offset="1" style="stop-color:#314f6d;stop-opacity:1"/></linearGradient>
        <linearGradient id="_Linear5" x1="0" y1="0" x2="1" y2="0" gradientUnits="userSpaceOnUse" gradientTransform="matrix(-7.69232,3.11909,-3.11909,-7.69232,4.0459,-0.977242)"><stop offset="0" style="stop-color:#94afc0;stop-opacity:1"/><stop offset="1" style="stop-color:#314f6d;stop-opacity:1"/></linearGradient>
        <linearGradient id="_Linear6" x1="0" y1="0" x2="1" y2="0" gradientUnits="userSpaceOnUse" gradientTransform="matrix(-7.69232,3.11909,-3.11909,-7.69232,3.32324,-0.977242)"><stop offset="0" style="stop-color:#94afc0;stop-opacity:1"/><stop offset="1" style="stop-color:#314f6d;stop-opacity:1"/></linearGradient>
        <linearGradient id="_Linear7" x1="0" y1="0" x2="1" y2="0" gradientUnits="userSpaceOnUse" gradientTransform="matrix(-7.69232,3.11909,-3.11909,-7.69232,2.80029,-0.977242)"><stop offset="0" style="stop-color:#94afc0;stop-opacity:1"/><stop offset="1" style="stop-color:#314f6d;stop-opacity:1"/></linearGradient>
        <linearGradient id="_Linear8" x1="0" y1="0" x2="1" y2="0" gradientUnits="userSpaceOnUse" gradientTransform="matrix(-7.69232,3.11909,-3.11909,-7.69232,2.45264,-0.977242)"><stop offset="0" style="stop-color:#94afc0;stop-opacity:1"/><stop offset="1" style="stop-color:#314f6d;stop-opacity:1"/></linearGradient>
        <linearGradient id="_Linear9" x1="0" y1="0" x2="1" y2="0" gradientUnits="userSpaceOnUse" gradientTransform="matrix(-7.69232,3.11909,-3.11909,-7.69232,1.92969,-0.977242)"><stop offset="0" style="stop-color:#94afc0;stop-opacity:1"/><stop offset="1" style="stop-color:#314f6d;stop-opacity:1"/></linearGradient>
        <linearGradient id="_Linear10" x1="0" y1="0" x2="1" y2="0" gradientUnits="userSpaceOnUse" gradientTransform="matrix(-7.69232,3.11909,-3.11909,-7.69232,1.06689,-0.977242)"><stop offset="0" style="stop-color:#94afc0;stop-opacity:1"/><stop offset="1" style="stop-color:#314f6d;stop-opacity:1"/></linearGradient>
        <linearGradient id="_Linear11" x1="0" y1="0" x2="1" y2="0" gradientUnits="userSpaceOnUse" gradientTransform="matrix(-7.69232,3.11909,-3.11909,-7.69232,0.479004,-0.977242)"><stop offset="0" style="stop-color:#94afc0;stop-opacity:1"/><stop offset="1" style="stop-color:#314f6d;stop-opacity:1"/></linearGradient>
    </defs>
</svg>
