<svg width="8" height="8" viewBox="0 0 8 8" fill="none" xmlns="http://www.w3.org/2000/svg">
<g clip-path="url(#clip0_50_98)">
<rect width="2" height="2" fill="black" fill-opacity="0.25"/>
<rect x="2" width="2" height="2" fill="black" fill-opacity="0.5"/>
<rect y="2" width="2" height="2" fill="black" fill-opacity="0.5"/>
<rect x="4" y="2" width="2" height="2" fill="black" fill-opacity="0.5"/>
<rect x="6" width="2" height="2" fill="black" fill-opacity="0.5"/>
<rect x="6" y="4" width="2" height="2" fill="black" fill-opacity="0.5"/>
<rect x="2" y="4" width="2" height="2" fill="black" fill-opacity="0.5"/>
<rect y="6" width="2" height="2" fill="black" fill-opacity="0.5"/>
<rect x="4" y="6" width="2" height="2" fill="black" fill-opacity="0.5"/>
<rect x="2" y="2" width="2" height="2" fill="black" fill-opacity="0.25"/>
<rect y="4" width="2" height="2" fill="black" fill-opacity="0.25"/>
<rect x="4" y="4" width="2" height="2" fill="black" fill-opacity="0.25"/>
<rect x="6" y="2" width="2" height="2" fill="black" fill-opacity="0.25"/>
<rect x="4" width="2" height="2" fill="black" fill-opacity="0.25"/>
<rect x="2" y="6" width="2" height="2" fill="black" fill-opacity="0.25"/>
<rect x="6" y="6" width="2" height="2" fill="black" fill-opacity="0.25"/>
</g>
<defs>
<clipPath id="clip0_50_98">
<rect width="8" height="8" fill="white"/>
</clipPath>
</defs>
</svg>
