<?xml version="1.0" encoding="UTF-8"?>
<svg id="Layer_2" data-name="Layer 2" xmlns="http://www.w3.org/2000/svg" xmlns:xlink="http://www.w3.org/1999/xlink" viewBox="0 0 137.78 125.15">
  <defs>
    <style>
      .cls-1 {
        fill: url(#radial-gradient);
      }
    </style>
    <radialGradient id="radial-gradient" cx="68.89" cy="62.57" fx="58.69" fy="46.42" r="69.06" gradientUnits="userSpaceOnUse">
      <stop offset="0" stop-color="#e5dfee"/>
      <stop offset=".2" stop-color="#ccd2f2"/>
      <stop offset=".58" stop-color="#93b5fe"/>
      <stop offset=".91" stop-color="#8a95fe"/>
      <stop offset="1" stop-color="#888bff"/>
    </radialGradient>
  </defs>
  <g id="Layer_11" data-name="Layer 11">
    <g id="Layer_13" data-name="Layer 13">
      <path class="cls-1" d="M63.69,68.5c3.3,1.27,18.72,11.39,20.58,21.42l9.51-6.97c4.15,12.97,4.34,27.36,3.3,42.19-9.27-11.99-22.43-17.67-39.56-13.5,15.17-12.11,20.27-35.19,14.5-47.67,12.43-3.7,21.73-5.46,30.65-2.77-.61-3.99-.62-7.39-.5-10.51,13.34,4.81,25.31,11.61,35.61,20.81-15.33.47-28.19,9.18-33.25,24.33-4.71-24.77-13.87-32.94-30.5-40.13,4.36-11.06,10.97-18.95,15.96-22.84,0,0-4.98-3.68-7.21-5.61,11.88-6.1,23.87-10.12,36.06-11.06-9.23,8.52-8.04,24-1.05,33.63-18.06-8.77-34.61-8.02-48.39.22-3.23-5.06-8.15-13.53-7.98-23.89l-9.03,2.75c.47-9.71,5.63-19.32,12.99-28.9,3.62,11.08,12.63,16.03,25.32,17.39-17.17,7.84-28.87,18.07-29.67,33.08-3.17.07-17.49-1.71-25.6-8.26l-5.28,8.26c-6.96-7.36-11.12-16.23-12.83-26.42,12.29,3.23,22.78.98,31.32-7.21-4.98,16.62-4.2,29.12,5.83,39.85-3.34,3.96-13.58,13-24.17,14.2l3.85,10.02c-13.44-.28-25.51-1.72-34.18-6,11.25-6.21,17.63-16.07,19.54-29.89,5.98,13.35,17.86,20.26,37.49,19.82-.74,10.66-1.26,22.39-5.56,28.46l10.4,3.19c-8.63,10.87-18.68,19.62-29.89,26.64,3.12-16.76-1.66-28.78-12.77-36.99,23.52,3.37,39.62-8.06,44.48-17.64Z"/>
    </g>
  </g>
</svg>