<?xml version="1.0" encoding="UTF-8"?>
<svg xmlns="http://www.w3.org/2000/svg" xmlns:xlink="http://www.w3.org/1999/xlink" viewBox="0 0 55.34 50.2">
  <defs>
    <style>
      .cls-1 {
        fill: url(#linear-gradient);
      }
    </style>
    <linearGradient id="linear-gradient" x1="19.76" y1="2.16" x2="37.1" y2="47.24" gradientUnits="userSpaceOnUse">
      <stop offset="0" stop-color="#5c95fc"/>
      <stop offset="1" stop-color="#9de9fe"/>
    </linearGradient>
  </defs>
  <g>
    <path class="cls-1" d="M53.92,13.71c-.41,8.63-3.61,13.82-9.25,16.02C62.34,13.05,37.9-7.6,17.34,2.81c8.24-2.33,16.6-.74,19.73,2.72C18-.96-.16,10.92,0,28.07c1.82-6.59,5.14-12.1,11.89-15.11-23.37,20.34,3.8,47.83,28.4,33.03-11.31,2.92-20.44-.05-24.44-7.18,15.94,13.1,46.4-4.82,38.06-25.1ZM29.38,9.08c19.31,0,15.03,24.94-3.88,24.94s-15.43-24.94,3.88-24.94Z"/>
  </g>
</svg>